<svg xmlns="http://www.w3.org/2000/svg" xmlns:xlink="http://www.w3.org/1999/xlink" width="360" zoomAndPan="magnify" viewBox="0 0 270 74.999997" height="100" preserveAspectRatio="xMidYMid meet" version="1.0"><defs><g/></defs><g fill="#ffffff" fill-opacity="1"><g transform="translate(4.904835, 59.249994)"><g><path d="M 15.71875 -39 C 20.175781 -39 23.914062 -38.125 26.9375 -36.375 C 29.96875 -34.632812 32.257812 -32.296875 33.8125 -29.359375 C 35.375 -26.429688 36.15625 -23.144531 36.15625 -19.5 C 36.15625 -15.894531 35.375 -12.613281 33.8125 -9.65625 C 32.257812 -6.707031 29.96875 -4.359375 26.9375 -2.609375 C 23.914062 -0.867188 20.175781 0 15.71875 0 L 4.734375 0 C 4.179688 0 3.90625 -0.273438 3.90625 -0.828125 L 3.90625 -38.171875 C 3.90625 -38.722656 4.179688 -39 4.734375 -39 Z M 15.71875 -6.734375 C 19.945312 -6.734375 23.117188 -7.859375 25.234375 -10.109375 C 27.359375 -12.359375 28.421875 -15.488281 28.421875 -19.5 C 28.421875 -23.507812 27.359375 -26.640625 25.234375 -28.890625 C 23.117188 -31.140625 19.945312 -32.265625 15.71875 -32.265625 L 11.53125 -32.265625 L 11.53125 -6.734375 Z M 15.71875 -6.734375 "/></g></g></g><g fill="#ffffff" fill-opacity="1"><g transform="translate(43.568204, 59.249994)"><g><path d="M 25.296875 -6.734375 C 25.847656 -6.734375 26.125 -6.457031 26.125 -5.90625 L 26.125 -0.828125 C 26.125 -0.273438 25.847656 0 25.296875 0 L 4.734375 0 C 4.179688 0 3.90625 -0.273438 3.90625 -0.828125 L 3.90625 -38.171875 C 3.90625 -38.722656 4.179688 -39 4.734375 -39 L 25.234375 -39 C 25.796875 -39 26.078125 -38.722656 26.078125 -38.171875 L 26.078125 -33.09375 C 26.078125 -32.539062 25.796875 -32.265625 25.234375 -32.265625 L 11.53125 -32.265625 L 11.53125 -23.453125 L 24.40625 -23.453125 C 24.957031 -23.453125 25.234375 -23.175781 25.234375 -22.625 L 25.234375 -17.546875 C 25.234375 -16.992188 24.957031 -16.71875 24.40625 -16.71875 L 11.53125 -16.71875 L 11.53125 -6.734375 Z M 25.296875 -6.734375 "/></g></g></g><g fill="#ffffff" fill-opacity="1"><g transform="translate(73.317827, 59.249994)"><g><path d="M 25.296875 -6.734375 C 25.847656 -6.734375 26.125 -6.457031 26.125 -5.90625 L 26.125 -0.828125 C 26.125 -0.273438 25.847656 0 25.296875 0 L 4.734375 0 C 4.179688 0 3.90625 -0.273438 3.90625 -0.828125 L 3.90625 -38.171875 C 3.90625 -38.722656 4.179688 -39 4.734375 -39 L 25.234375 -39 C 25.796875 -39 26.078125 -38.722656 26.078125 -38.171875 L 26.078125 -33.09375 C 26.078125 -32.539062 25.796875 -32.265625 25.234375 -32.265625 L 11.53125 -32.265625 L 11.53125 -23.453125 L 24.40625 -23.453125 C 24.957031 -23.453125 25.234375 -23.175781 25.234375 -22.625 L 25.234375 -17.546875 C 25.234375 -16.992188 24.957031 -16.71875 24.40625 -16.71875 L 11.53125 -16.71875 L 11.53125 -6.734375 Z M 25.296875 -6.734375 "/></g></g></g><g fill="#ffffff" fill-opacity="1"><g transform="translate(103.067451, 59.249994)"><g><path d="M 24.1875 -6.734375 C 24.738281 -6.734375 25.015625 -6.457031 25.015625 -5.90625 L 25.015625 -0.828125 C 25.015625 -0.273438 24.738281 0 24.1875 0 L 4.734375 0 C 4.179688 0 3.90625 -0.273438 3.90625 -0.828125 L 3.90625 -38.171875 C 3.90625 -38.722656 4.179688 -39 4.734375 -39 L 10.703125 -39 C 11.253906 -39 11.53125 -38.722656 11.53125 -38.171875 L 11.53125 -6.734375 Z M 24.1875 -6.734375 "/></g></g></g><g fill="#ffffff" fill-opacity="1"><g transform="translate(130.867196, 59.249994)"><g><path d="M 31.09375 -1 C 31.28125 -0.707031 31.316406 -0.46875 31.203125 -0.28125 C 31.085938 -0.09375 30.863281 0 30.53125 0 L 24.1875 0 C 23.738281 0 23.398438 -0.1875 23.171875 -0.5625 L 14.765625 -13.546875 L 11.53125 -13.546875 L 11.53125 -0.828125 C 11.53125 -0.273438 11.253906 0 10.703125 0 L 4.734375 0 C 4.179688 0 3.90625 -0.273438 3.90625 -0.828125 L 3.90625 -38.171875 C 3.90625 -38.722656 4.179688 -39 4.734375 -39 L 16.265625 -39 C 19.347656 -39 21.9375 -38.453125 24.03125 -37.359375 C 26.132812 -36.265625 27.722656 -34.769531 28.796875 -32.875 C 29.878906 -30.976562 30.421875 -28.785156 30.421875 -26.296875 C 30.421875 -23.472656 29.722656 -21.019531 28.328125 -18.9375 C 26.941406 -16.863281 24.910156 -15.363281 22.234375 -14.4375 Z M 11.53125 -32.265625 L 11.53125 -20.34375 L 16.109375 -20.34375 C 17.296875 -20.34375 18.425781 -20.515625 19.5 -20.859375 C 20.582031 -21.210938 21.457031 -21.828125 22.125 -22.703125 C 22.789062 -23.578125 23.125 -24.773438 23.125 -26.296875 C 23.125 -27.816406 22.789062 -29.003906 22.125 -29.859375 C 21.457031 -30.710938 20.582031 -31.328125 19.5 -31.703125 C 18.425781 -32.078125 17.296875 -32.265625 16.109375 -32.265625 Z M 11.53125 -32.265625 "/></g></g></g><g fill="#ffffff" fill-opacity="1"><g transform="translate(164.906557, 59.249994)"><g><path d="M 36.65625 -0.953125 C 36.914062 -0.316406 36.695312 0 36 0 L 29.8125 0 C 29.320312 0 29.003906 -0.222656 28.859375 -0.671875 L 26.640625 -7.296875 L 12.03125 -7.296875 L 9.8125 -0.671875 C 9.65625 -0.222656 9.335938 0 8.859375 0 L 2.671875 0 C 1.960938 0 1.738281 -0.316406 2 -0.953125 L 15.546875 -38.328125 C 15.734375 -38.773438 16.050781 -39 16.5 -39 L 22.0625 -39 C 22.625 -39 22.976562 -38.773438 23.125 -38.328125 Z M 14.09375 -13.421875 L 24.578125 -13.421875 L 19.328125 -29.078125 Z M 14.09375 -13.421875 "/></g></g></g><g fill="#ffffff" fill-opacity="1"><g transform="translate(203.569926, 59.249994)"><g><path d="M 28.140625 -39 C 28.691406 -39 28.96875 -38.722656 28.96875 -38.171875 L 28.96875 -33.09375 C 28.96875 -32.539062 28.691406 -32.265625 28.140625 -32.265625 L 19.71875 -32.265625 L 19.71875 -0.828125 C 19.71875 -0.273438 19.441406 0 18.890625 0 L 12.921875 0 C 12.367188 0 12.09375 -0.273438 12.09375 -0.828125 L 12.09375 -32.265625 L 3.625 -32.265625 C 3.0625 -32.265625 2.78125 -32.539062 2.78125 -33.09375 L 2.78125 -38.171875 C 2.78125 -38.722656 3.0625 -39 3.625 -39 Z M 28.140625 -39 "/></g></g></g><g fill="#ffffff" fill-opacity="1"><g transform="translate(235.32515, 59.249994)"><g><path d="M 25.296875 -6.734375 C 25.847656 -6.734375 26.125 -6.457031 26.125 -5.90625 L 26.125 -0.828125 C 26.125 -0.273438 25.847656 0 25.296875 0 L 4.734375 0 C 4.179688 0 3.90625 -0.273438 3.90625 -0.828125 L 3.90625 -38.171875 C 3.90625 -38.722656 4.179688 -39 4.734375 -39 L 25.234375 -39 C 25.796875 -39 26.078125 -38.722656 26.078125 -38.171875 L 26.078125 -33.09375 C 26.078125 -32.539062 25.796875 -32.265625 25.234375 -32.265625 L 11.53125 -32.265625 L 11.53125 -23.453125 L 24.40625 -23.453125 C 24.957031 -23.453125 25.234375 -23.175781 25.234375 -22.625 L 25.234375 -17.546875 C 25.234375 -16.992188 24.957031 -16.71875 24.40625 -16.71875 L 11.53125 -16.71875 L 11.53125 -6.734375 Z M 25.296875 -6.734375 "/></g></g></g></svg>