<svg xmlns="http://www.w3.org/2000/svg" xmlns:xlink="http://www.w3.org/1999/xlink" width="500" zoomAndPan="magnify" viewBox="0 0 375 374.999991" height="500" preserveAspectRatio="xMidYMid meet" version="1.0"><defs><g/><clipPath id="6b9651ac2e"><path d="M 151.152344 133.144531 L 221.652344 133.144531 L 221.652344 167.644531 L 151.152344 167.644531 Z M 151.152344 133.144531 " clip-rule="nonzero"/></clipPath></defs><g clip-path="url(#6b9651ac2e)"><path fill="#5f0cf7" d="M 162.832031 133.144531 L 179.011719 133.144531 C 180.214844 133.144531 181.328125 133.789062 181.925781 134.828125 L 186.53125 142.800781 L 190.988281 150.523438 L 195.59375 158.496094 C 196.195312 159.539062 197.304688 160.179688 198.507812 160.179688 L 205.769531 160.179688 C 206.972656 160.179688 208.082031 159.539062 208.683594 158.496094 L 212.316406 152.207031 C 212.917969 151.167969 212.917969 149.882812 212.316406 148.84375 L 208.683594 142.550781 C 208.082031 141.511719 206.972656 140.871094 205.769531 140.871094 L 198.507812 140.871094 C 197.304688 140.871094 196.195312 141.511719 195.59375 142.550781 L 192.847656 147.304688 L 188.386719 139.582031 L 191.132812 134.828125 C 191.734375 133.789062 192.84375 133.144531 194.046875 133.144531 L 210.230469 133.144531 C 211.429688 133.144531 212.542969 133.789062 213.144531 134.828125 L 221.234375 148.84375 C 221.835938 149.882812 221.835938 151.167969 221.234375 152.207031 L 213.144531 166.222656 C 212.542969 167.261719 211.429688 167.902344 210.230469 167.902344 L 194.046875 167.902344 C 192.84375 167.902344 191.734375 167.261719 191.132812 166.222656 L 186.53125 158.25 L 182.070312 150.523438 L 177.46875 142.550781 C 176.867188 141.511719 175.757812 140.871094 174.554688 140.871094 L 167.289062 140.871094 C 166.089844 140.871094 164.976562 141.511719 164.375 142.550781 L 160.746094 148.84375 C 160.144531 149.882812 160.144531 151.167969 160.746094 152.207031 L 164.375 158.496094 C 164.976562 159.539062 166.089844 160.179688 167.289062 160.179688 L 174.554688 160.179688 C 175.757812 160.179688 176.867188 159.539062 177.46875 158.496094 L 180.214844 153.742188 L 184.671875 161.46875 L 181.925781 166.222656 C 181.328125 167.261719 180.214844 167.902344 179.011719 167.902344 L 162.832031 167.902344 C 161.628906 167.902344 160.519531 167.261719 159.917969 166.222656 L 151.828125 152.207031 C 151.226562 151.167969 151.226562 149.882812 151.828125 148.84375 L 159.917969 134.828125 C 160.519531 133.789062 161.628906 133.144531 162.832031 133.144531 " fill-opacity="1" fill-rule="nonzero"/></g><g fill="#ffffff" fill-opacity="1"><g transform="translate(93.694593, 228.487003)"><g><path d="M 13.453125 -35.421875 C 17.535156 -35.421875 20.941406 -34.632812 23.671875 -33.0625 C 26.410156 -31.488281 28.476562 -29.367188 29.875 -26.703125 C 31.269531 -24.046875 31.96875 -21.046875 31.96875 -17.703125 C 31.96875 -14.398438 31.269531 -11.40625 29.875 -8.71875 C 28.476562 -6.039062 26.410156 -3.914062 23.671875 -2.34375 C 20.941406 -0.78125 17.535156 0 13.453125 0 L 4.453125 0 C 3.941406 0 3.6875 -0.253906 3.6875 -0.765625 L 3.6875 -34.65625 C 3.6875 -35.164062 3.941406 -35.421875 4.453125 -35.421875 Z M 13.453125 -4.953125 C 17.773438 -4.953125 21.015625 -6.082031 23.171875 -8.34375 C 25.328125 -10.601562 26.40625 -13.722656 26.40625 -17.703125 C 26.40625 -21.722656 25.328125 -24.851562 23.171875 -27.09375 C 21.015625 -29.332031 17.773438 -30.453125 13.453125 -30.453125 L 9.203125 -30.453125 L 9.203125 -4.953125 Z M 13.453125 -4.953125 "/></g></g></g><g fill="#ffffff" fill-opacity="1"><g transform="translate(126.165291, 228.487003)"><g><path d="M 14.71875 -25.296875 C 17.113281 -25.296875 19.1875 -24.738281 20.9375 -23.625 C 22.695312 -22.507812 24.054688 -21.03125 25.015625 -19.1875 C 25.972656 -17.351562 26.453125 -15.375 26.453125 -13.25 C 26.453125 -12.3125 26.351562 -11.613281 26.15625 -11.15625 C 25.957031 -10.695312 25.519531 -10.46875 24.84375 -10.46875 L 7.6875 -10.46875 C 8.03125 -8.550781 8.898438 -7.007812 10.296875 -5.84375 C 11.691406 -4.675781 13.503906 -4.09375 15.734375 -4.09375 C 17.015625 -4.09375 18.125 -4.269531 19.0625 -4.625 C 20.007812 -4.976562 20.90625 -5.476562 21.75 -6.125 C 22.1875 -6.425781 22.539062 -6.441406 22.8125 -6.171875 L 24.4375 -4.609375 C 24.84375 -4.234375 24.84375 -3.84375 24.4375 -3.4375 C 23.289062 -2.257812 21.921875 -1.332031 20.328125 -0.65625 C 18.742188 0.0195312 17.046875 0.359375 15.234375 0.359375 C 12.703125 0.359375 10.472656 -0.210938 8.546875 -1.359375 C 6.628906 -2.515625 5.128906 -4.066406 4.046875 -6.015625 C 2.960938 -7.972656 2.421875 -10.132812 2.421875 -12.5 C 2.421875 -14.894531 2.953125 -17.050781 4.015625 -18.96875 C 5.078125 -20.894531 6.535156 -22.429688 8.390625 -23.578125 C 10.253906 -24.722656 12.363281 -25.296875 14.71875 -25.296875 Z M 14.765625 -20.6875 C 12.878906 -20.6875 11.285156 -20.097656 9.984375 -18.921875 C 8.691406 -17.742188 7.910156 -16.160156 7.640625 -14.171875 L 21.75 -14.171875 C 21.550781 -16.160156 20.8125 -17.742188 19.53125 -18.921875 C 18.25 -20.097656 16.660156 -20.6875 14.765625 -20.6875 Z M 14.765625 -20.6875 "/></g></g></g><g fill="#ffffff" fill-opacity="1"><g transform="translate(153.072409, 228.487003)"><g><path d="M 14.71875 -25.296875 C 17.113281 -25.296875 19.1875 -24.738281 20.9375 -23.625 C 22.695312 -22.507812 24.054688 -21.03125 25.015625 -19.1875 C 25.972656 -17.351562 26.453125 -15.375 26.453125 -13.25 C 26.453125 -12.3125 26.351562 -11.613281 26.15625 -11.15625 C 25.957031 -10.695312 25.519531 -10.46875 24.84375 -10.46875 L 7.6875 -10.46875 C 8.03125 -8.550781 8.898438 -7.007812 10.296875 -5.84375 C 11.691406 -4.675781 13.503906 -4.09375 15.734375 -4.09375 C 17.015625 -4.09375 18.125 -4.269531 19.0625 -4.625 C 20.007812 -4.976562 20.90625 -5.476562 21.75 -6.125 C 22.1875 -6.425781 22.539062 -6.441406 22.8125 -6.171875 L 24.4375 -4.609375 C 24.84375 -4.234375 24.84375 -3.84375 24.4375 -3.4375 C 23.289062 -2.257812 21.921875 -1.332031 20.328125 -0.65625 C 18.742188 0.0195312 17.046875 0.359375 15.234375 0.359375 C 12.703125 0.359375 10.472656 -0.210938 8.546875 -1.359375 C 6.628906 -2.515625 5.128906 -4.066406 4.046875 -6.015625 C 2.960938 -7.972656 2.421875 -10.132812 2.421875 -12.5 C 2.421875 -14.894531 2.953125 -17.050781 4.015625 -18.96875 C 5.078125 -20.894531 6.535156 -22.429688 8.390625 -23.578125 C 10.253906 -24.722656 12.363281 -25.296875 14.71875 -25.296875 Z M 14.765625 -20.6875 C 12.878906 -20.6875 11.285156 -20.097656 9.984375 -18.921875 C 8.691406 -17.742188 7.910156 -16.160156 7.640625 -14.171875 L 21.75 -14.171875 C 21.550781 -16.160156 20.8125 -17.742188 19.53125 -18.921875 C 18.25 -20.097656 16.660156 -20.6875 14.765625 -20.6875 Z M 14.765625 -20.6875 "/></g></g></g><g fill="#ffffff" fill-opacity="1"><g transform="translate(179.979527, 228.487003)"><g><path d="M 3.1875 -36.171875 C 3.1875 -36.679688 3.441406 -36.9375 3.953125 -36.9375 L 7.734375 -36.9375 C 8.242188 -36.9375 8.5 -36.679688 8.5 -36.171875 L 8.5 -0.765625 C 8.5 -0.253906 8.242188 0 7.734375 0 L 3.953125 0 C 3.441406 0 3.1875 -0.253906 3.1875 -0.765625 Z M 3.1875 -36.171875 "/></g></g></g><g fill="#ffffff" fill-opacity="1"><g transform="translate(189.690102, 228.487003)"><g><path d="M 17.8125 -24.390625 C 18.113281 -24.117188 18.179688 -23.796875 18.015625 -23.421875 L 16.84375 -20.640625 C 16.675781 -20.234375 16.335938 -20.082031 15.828125 -20.1875 C 15.597656 -20.25 15.320312 -20.3125 15 -20.375 C 14.675781 -20.445312 14.28125 -20.484375 13.8125 -20.484375 C 12.257812 -20.484375 10.984375 -19.96875 9.984375 -18.9375 C 8.992188 -17.914062 8.5 -16.628906 8.5 -15.078125 L 8.5 -0.765625 C 8.5 -0.253906 8.242188 0 7.734375 0 L 3.953125 0 C 3.441406 0 3.1875 -0.253906 3.1875 -0.765625 L 3.1875 -24.03125 C 3.1875 -24.539062 3.441406 -24.796875 3.953125 -24.796875 L 7.484375 -24.796875 C 7.921875 -24.796875 8.175781 -24.539062 8.25 -24.03125 L 8.453125 -21.609375 C 9.128906 -22.710938 9.976562 -23.609375 11 -24.296875 C 12.03125 -24.992188 13.253906 -25.34375 14.671875 -25.34375 C 15.347656 -25.34375 15.953125 -25.25 16.484375 -25.0625 C 17.023438 -24.882812 17.46875 -24.660156 17.8125 -24.390625 Z M 17.8125 -24.390625 "/></g></g></g><g fill="#ffffff" fill-opacity="1"><g transform="translate(206.734496, 228.487003)"><g><path d="M 26.921875 -24.796875 C 27.421875 -24.796875 27.671875 -24.539062 27.671875 -24.03125 L 27.671875 -0.765625 C 27.671875 -0.253906 27.421875 0 26.921875 0 L 23.625 0 C 23.1875 0 22.9375 -0.253906 22.875 -0.765625 L 22.609375 -3.59375 C 21.703125 -2.414062 20.570312 -1.460938 19.21875 -0.734375 C 17.875 -0.00390625 16.304688 0.359375 14.515625 0.359375 C 12.191406 0.359375 10.117188 -0.210938 8.296875 -1.359375 C 6.472656 -2.515625 5.035156 -4.050781 3.984375 -5.96875 C 2.941406 -7.894531 2.421875 -10.019531 2.421875 -12.34375 C 2.421875 -14.769531 2.941406 -16.960938 3.984375 -18.921875 C 5.035156 -20.878906 6.472656 -22.429688 8.296875 -23.578125 C 10.117188 -24.722656 12.191406 -25.296875 14.515625 -25.296875 C 16.304688 -25.296875 17.882812 -24.914062 19.25 -24.15625 C 20.613281 -23.394531 21.753906 -22.390625 22.671875 -21.140625 L 22.875 -24.03125 C 22.9375 -24.539062 23.1875 -24.796875 23.625 -24.796875 Z M 15.03125 -4.5 C 16.507812 -4.5 17.804688 -4.84375 18.921875 -5.53125 C 20.035156 -6.226562 20.910156 -7.175781 21.546875 -8.375 C 22.191406 -9.570312 22.515625 -10.910156 22.515625 -12.390625 C 22.515625 -13.878906 22.191406 -15.238281 21.546875 -16.46875 C 20.910156 -17.695312 20.035156 -18.671875 18.921875 -19.390625 C 17.804688 -20.117188 16.507812 -20.484375 15.03125 -20.484375 C 13.613281 -20.484375 12.335938 -20.128906 11.203125 -19.421875 C 10.078125 -18.710938 9.179688 -17.75 8.515625 -16.53125 C 7.859375 -15.320312 7.53125 -13.941406 7.53125 -12.390625 C 7.53125 -10.910156 7.859375 -9.570312 8.515625 -8.375 C 9.179688 -7.175781 10.078125 -6.226562 11.203125 -5.53125 C 12.335938 -4.84375 13.613281 -4.5 15.03125 -4.5 Z M 15.03125 -4.5 "/></g></g></g><g fill="#ffffff" fill-opacity="1"><g transform="translate(235.664735, 228.487003)"><g><path d="M 16.09375 -24.796875 C 16.59375 -24.796875 16.84375 -24.539062 16.84375 -24.03125 L 16.84375 -21.140625 C 16.84375 -20.640625 16.59375 -20.390625 16.09375 -20.390625 L 12.046875 -20.390625 L 12.046875 -0.765625 C 12.046875 -0.253906 11.789062 0 11.28125 0 L 7.484375 0 C 6.984375 0 6.734375 -0.253906 6.734375 -0.765625 L 6.734375 -20.390625 L 2.6875 -20.390625 C 2.175781 -20.390625 1.921875 -20.640625 1.921875 -21.140625 L 1.921875 -24.03125 C 1.921875 -24.539062 2.175781 -24.796875 2.6875 -24.796875 L 6.734375 -24.796875 L 6.734375 -31.625 C 6.734375 -32.125 6.984375 -32.375 7.484375 -32.375 L 11.28125 -32.375 C 11.789062 -32.375 12.046875 -32.125 12.046875 -31.625 L 12.046875 -24.796875 Z M 16.09375 -24.796875 "/></g></g></g><g fill="#ffffff" fill-opacity="1"><g transform="translate(252.456238, 228.487003)"><g><path d="M 14.71875 -25.296875 C 17.113281 -25.296875 19.1875 -24.738281 20.9375 -23.625 C 22.695312 -22.507812 24.054688 -21.03125 25.015625 -19.1875 C 25.972656 -17.351562 26.453125 -15.375 26.453125 -13.25 C 26.453125 -12.3125 26.351562 -11.613281 26.15625 -11.15625 C 25.957031 -10.695312 25.519531 -10.46875 24.84375 -10.46875 L 7.6875 -10.46875 C 8.03125 -8.550781 8.898438 -7.007812 10.296875 -5.84375 C 11.691406 -4.675781 13.503906 -4.09375 15.734375 -4.09375 C 17.015625 -4.09375 18.125 -4.269531 19.0625 -4.625 C 20.007812 -4.976562 20.90625 -5.476562 21.75 -6.125 C 22.1875 -6.425781 22.539062 -6.441406 22.8125 -6.171875 L 24.4375 -4.609375 C 24.84375 -4.234375 24.84375 -3.84375 24.4375 -3.4375 C 23.289062 -2.257812 21.921875 -1.332031 20.328125 -0.65625 C 18.742188 0.0195312 17.046875 0.359375 15.234375 0.359375 C 12.703125 0.359375 10.472656 -0.210938 8.546875 -1.359375 C 6.628906 -2.515625 5.128906 -4.066406 4.046875 -6.015625 C 2.960938 -7.972656 2.421875 -10.132812 2.421875 -12.5 C 2.421875 -14.894531 2.953125 -17.050781 4.015625 -18.96875 C 5.078125 -20.894531 6.535156 -22.429688 8.390625 -23.578125 C 10.253906 -24.722656 12.363281 -25.296875 14.71875 -25.296875 Z M 14.765625 -20.6875 C 12.878906 -20.6875 11.285156 -20.097656 9.984375 -18.921875 C 8.691406 -17.742188 7.910156 -16.160156 7.640625 -14.171875 L 21.75 -14.171875 C 21.550781 -16.160156 20.8125 -17.742188 19.53125 -18.921875 C 18.25 -20.097656 16.660156 -20.6875 14.765625 -20.6875 Z M 14.765625 -20.6875 "/></g></g></g><g fill="#5f0cf7" fill-opacity="1"><g transform="translate(127.337269, 261.751986)"><g><path d="M 11.4375 -16.453125 C 11.675781 -16.453125 11.796875 -16.332031 11.796875 -16.09375 L 11.796875 -14.5 C 11.796875 -14.257812 11.675781 -14.140625 11.4375 -14.140625 L 7.796875 -14.140625 L 7.796875 -0.359375 C 7.796875 -0.117188 7.679688 0 7.453125 0 L 5.59375 0 C 5.351562 0 5.234375 -0.117188 5.234375 -0.359375 L 5.234375 -14.140625 L 1.59375 -14.140625 C 1.363281 -14.140625 1.25 -14.257812 1.25 -14.5 L 1.25 -16.09375 C 1.25 -16.332031 1.363281 -16.453125 1.59375 -16.453125 Z M 11.4375 -16.453125 "/></g></g></g><g fill="#5f0cf7" fill-opacity="1"><g transform="translate(139.455254, 261.751986)"><g><path d="M 6.84375 -11.75 C 7.945312 -11.75 8.90625 -11.488281 9.71875 -10.96875 C 10.539062 -10.457031 11.175781 -9.773438 11.625 -8.921875 C 12.070312 -8.066406 12.296875 -7.144531 12.296875 -6.15625 C 12.296875 -5.71875 12.25 -5.390625 12.15625 -5.171875 C 12.0625 -4.960938 11.851562 -4.859375 11.53125 -4.859375 L 3.578125 -4.859375 C 3.734375 -3.972656 4.132812 -3.257812 4.78125 -2.71875 C 5.425781 -2.175781 6.269531 -1.90625 7.3125 -1.90625 C 7.90625 -1.90625 8.421875 -1.984375 8.859375 -2.140625 C 9.296875 -2.304688 9.710938 -2.539062 10.109375 -2.84375 C 10.304688 -2.988281 10.46875 -2.992188 10.59375 -2.859375 L 11.34375 -2.140625 C 11.53125 -1.960938 11.53125 -1.78125 11.34375 -1.59375 C 10.8125 -1.050781 10.175781 -0.617188 9.4375 -0.296875 C 8.707031 0.015625 7.921875 0.171875 7.078125 0.171875 C 5.898438 0.171875 4.863281 -0.09375 3.96875 -0.625 C 3.070312 -1.164062 2.375 -1.890625 1.875 -2.796875 C 1.375 -3.703125 1.125 -4.703125 1.125 -5.796875 C 1.125 -6.910156 1.367188 -7.914062 1.859375 -8.8125 C 2.359375 -9.707031 3.035156 -10.421875 3.890625 -10.953125 C 4.753906 -11.484375 5.738281 -11.75 6.84375 -11.75 Z M 6.859375 -9.609375 C 5.984375 -9.609375 5.242188 -9.332031 4.640625 -8.78125 C 4.035156 -8.238281 3.671875 -7.503906 3.546875 -6.578125 L 10.109375 -6.578125 C 10.015625 -7.503906 9.664062 -8.238281 9.0625 -8.78125 C 8.46875 -9.332031 7.734375 -9.609375 6.859375 -9.609375 Z M 6.859375 -9.609375 "/></g></g></g><g fill="#5f0cf7" fill-opacity="1"><g transform="translate(151.949015, 261.751986)"><g><path d="M 6.984375 -2.109375 C 7.710938 -2.109375 8.289062 -2.238281 8.71875 -2.5 C 9.15625 -2.757812 9.539062 -3.046875 9.875 -3.359375 C 10.0625 -3.515625 10.234375 -3.515625 10.390625 -3.359375 L 11.421875 -2.375 C 11.578125 -2.21875 11.582031 -2.050781 11.4375 -1.875 C 10.90625 -1.25 10.253906 -0.75 9.484375 -0.375 C 8.722656 -0.0078125 7.878906 0.171875 6.953125 0.171875 C 5.859375 0.171875 4.867188 -0.09375 3.984375 -0.625 C 3.097656 -1.164062 2.398438 -1.882812 1.890625 -2.78125 C 1.378906 -3.6875 1.125 -4.6875 1.125 -5.78125 C 1.125 -6.894531 1.378906 -7.898438 1.890625 -8.796875 C 2.398438 -9.703125 3.097656 -10.421875 3.984375 -10.953125 C 4.867188 -11.484375 5.859375 -11.75 6.953125 -11.75 C 7.847656 -11.75 8.675781 -11.5625 9.4375 -11.1875 C 10.195312 -10.820312 10.84375 -10.328125 11.375 -9.703125 C 11.507812 -9.535156 11.5 -9.375 11.34375 -9.21875 L 10.3125 -8.21875 C 10.15625 -8.0625 9.984375 -8.070312 9.796875 -8.25 C 9.453125 -8.539062 9.070312 -8.820312 8.65625 -9.09375 C 8.238281 -9.363281 7.679688 -9.5 6.984375 -9.5 C 6.304688 -9.5 5.703125 -9.332031 5.171875 -9 C 4.648438 -8.664062 4.238281 -8.222656 3.9375 -7.671875 C 3.644531 -7.117188 3.5 -6.488281 3.5 -5.78125 C 3.5 -5.101562 3.644531 -4.488281 3.9375 -3.9375 C 4.238281 -3.382812 4.648438 -2.941406 5.171875 -2.609375 C 5.703125 -2.273438 6.304688 -2.109375 6.984375 -2.109375 Z M 6.984375 -2.109375 "/></g></g></g><g fill="#5f0cf7" fill-opacity="1"><g transform="translate(163.573809, 261.751986)"><g><path d="M 7.703125 -11.78125 C 8.898438 -11.78125 9.878906 -11.375 10.640625 -10.5625 C 11.410156 -9.757812 11.796875 -8.585938 11.796875 -7.046875 L 11.796875 -0.359375 C 11.796875 -0.117188 11.675781 0 11.4375 0 L 9.6875 0 C 9.445312 0 9.328125 -0.117188 9.328125 -0.359375 L 9.328125 -6.703125 C 9.328125 -7.679688 9.101562 -8.394531 8.65625 -8.84375 C 8.207031 -9.289062 7.640625 -9.515625 6.953125 -9.515625 C 6.453125 -9.515625 6.015625 -9.410156 5.640625 -9.203125 C 5.265625 -9.003906 4.953125 -8.757812 4.703125 -8.46875 C 4.453125 -8.175781 4.265625 -7.894531 4.140625 -7.625 C 4.015625 -7.363281 3.953125 -7.171875 3.953125 -7.046875 L 3.953125 -0.359375 C 3.953125 -0.117188 3.832031 0 3.59375 0 L 1.828125 0 C 1.597656 0 1.484375 -0.117188 1.484375 -0.359375 L 1.484375 -16.796875 C 1.484375 -17.035156 1.597656 -17.15625 1.828125 -17.15625 L 3.59375 -17.15625 C 3.832031 -17.15625 3.953125 -17.035156 3.953125 -16.796875 L 3.953125 -9.609375 C 4.359375 -10.222656 4.867188 -10.738281 5.484375 -11.15625 C 6.109375 -11.570312 6.847656 -11.78125 7.703125 -11.78125 Z M 7.703125 -11.78125 "/></g></g></g><g fill="#5f0cf7" fill-opacity="1"><g transform="translate(175.950144, 261.751986)"><g><path d="M 7.703125 -11.78125 C 8.898438 -11.78125 9.878906 -11.375 10.640625 -10.5625 C 11.410156 -9.757812 11.796875 -8.585938 11.796875 -7.046875 L 11.796875 -0.359375 C 11.796875 -0.117188 11.675781 0 11.4375 0 L 9.6875 0 C 9.445312 0 9.328125 -0.117188 9.328125 -0.359375 L 9.328125 -6.703125 C 9.328125 -7.679688 9.101562 -8.394531 8.65625 -8.84375 C 8.207031 -9.289062 7.640625 -9.515625 6.953125 -9.515625 C 6.453125 -9.515625 6.015625 -9.410156 5.640625 -9.203125 C 5.265625 -9.003906 4.953125 -8.757812 4.703125 -8.46875 C 4.453125 -8.175781 4.265625 -7.894531 4.140625 -7.625 C 4.015625 -7.363281 3.953125 -7.171875 3.953125 -7.046875 L 3.953125 -0.359375 C 3.953125 -0.117188 3.832031 0 3.59375 0 L 1.828125 0 C 1.597656 0 1.484375 -0.117188 1.484375 -0.359375 L 1.484375 -11.15625 C 1.484375 -11.394531 1.597656 -11.515625 1.828125 -11.515625 L 3.5 -11.515625 C 3.707031 -11.515625 3.828125 -11.394531 3.859375 -11.15625 L 3.953125 -9.609375 C 4.359375 -10.222656 4.867188 -10.738281 5.484375 -11.15625 C 6.109375 -11.570312 6.847656 -11.78125 7.703125 -11.78125 Z M 7.703125 -11.78125 "/></g></g></g><g fill="#5f0cf7" fill-opacity="1"><g transform="translate(188.326479, 261.751986)"><g><path d="M 7.03125 0.234375 C 5.925781 0.234375 4.925781 -0.03125 4.03125 -0.5625 C 3.144531 -1.09375 2.4375 -1.8125 1.90625 -2.71875 C 1.382812 -3.632812 1.125 -4.644531 1.125 -5.75 C 1.125 -6.882812 1.382812 -7.90625 1.90625 -8.8125 C 2.4375 -9.71875 3.144531 -10.4375 4.03125 -10.96875 C 4.925781 -11.507812 5.925781 -11.78125 7.03125 -11.78125 C 8.125 -11.78125 9.113281 -11.507812 10 -10.96875 C 10.894531 -10.4375 11.601562 -9.71875 12.125 -8.8125 C 12.65625 -7.90625 12.921875 -6.882812 12.921875 -5.75 C 12.921875 -4.644531 12.65625 -3.632812 12.125 -2.71875 C 11.601562 -1.8125 10.894531 -1.09375 10 -0.5625 C 9.113281 -0.03125 8.125 0.234375 7.03125 0.234375 Z M 7.03125 -2.046875 C 7.6875 -2.046875 8.28125 -2.207031 8.8125 -2.53125 C 9.34375 -2.851562 9.765625 -3.296875 10.078125 -3.859375 C 10.390625 -4.421875 10.546875 -5.050781 10.546875 -5.75 C 10.546875 -6.488281 10.390625 -7.140625 10.078125 -7.703125 C 9.765625 -8.265625 9.34375 -8.707031 8.8125 -9.03125 C 8.28125 -9.351562 7.6875 -9.515625 7.03125 -9.515625 C 6.375 -9.515625 5.773438 -9.351562 5.234375 -9.03125 C 4.703125 -8.707031 4.28125 -8.265625 3.96875 -7.703125 C 3.65625 -7.140625 3.5 -6.488281 3.5 -5.75 C 3.5 -5.050781 3.65625 -4.421875 3.96875 -3.859375 C 4.28125 -3.296875 4.703125 -2.851562 5.234375 -2.53125 C 5.773438 -2.207031 6.375 -2.046875 7.03125 -2.046875 Z M 7.03125 -2.046875 "/></g></g></g><g fill="#5f0cf7" fill-opacity="1"><g transform="translate(201.454339, 261.751986)"><g><path d="M 1.484375 -16.796875 C 1.484375 -17.035156 1.597656 -17.15625 1.828125 -17.15625 L 3.59375 -17.15625 C 3.832031 -17.15625 3.953125 -17.035156 3.953125 -16.796875 L 3.953125 -0.359375 C 3.953125 -0.117188 3.832031 0 3.59375 0 L 1.828125 0 C 1.597656 0 1.484375 -0.117188 1.484375 -0.359375 Z M 1.484375 -16.796875 "/></g></g></g><g fill="#5f0cf7" fill-opacity="1"><g transform="translate(205.963083, 261.751986)"><g><path d="M 7.03125 0.234375 C 5.925781 0.234375 4.925781 -0.03125 4.03125 -0.5625 C 3.144531 -1.09375 2.4375 -1.8125 1.90625 -2.71875 C 1.382812 -3.632812 1.125 -4.644531 1.125 -5.75 C 1.125 -6.882812 1.382812 -7.90625 1.90625 -8.8125 C 2.4375 -9.71875 3.144531 -10.4375 4.03125 -10.96875 C 4.925781 -11.507812 5.925781 -11.78125 7.03125 -11.78125 C 8.125 -11.78125 9.113281 -11.507812 10 -10.96875 C 10.894531 -10.4375 11.601562 -9.71875 12.125 -8.8125 C 12.65625 -7.90625 12.921875 -6.882812 12.921875 -5.75 C 12.921875 -4.644531 12.65625 -3.632812 12.125 -2.71875 C 11.601562 -1.8125 10.894531 -1.09375 10 -0.5625 C 9.113281 -0.03125 8.125 0.234375 7.03125 0.234375 Z M 7.03125 -2.046875 C 7.6875 -2.046875 8.28125 -2.207031 8.8125 -2.53125 C 9.34375 -2.851562 9.765625 -3.296875 10.078125 -3.859375 C 10.390625 -4.421875 10.546875 -5.050781 10.546875 -5.75 C 10.546875 -6.488281 10.390625 -7.140625 10.078125 -7.703125 C 9.765625 -8.265625 9.34375 -8.707031 8.8125 -9.03125 C 8.28125 -9.351562 7.6875 -9.515625 7.03125 -9.515625 C 6.375 -9.515625 5.773438 -9.351562 5.234375 -9.03125 C 4.703125 -8.707031 4.28125 -8.265625 3.96875 -7.703125 C 3.65625 -7.140625 3.5 -6.488281 3.5 -5.75 C 3.5 -5.050781 3.65625 -4.421875 3.96875 -3.859375 C 4.28125 -3.296875 4.703125 -2.851562 5.234375 -2.53125 C 5.773438 -2.207031 6.375 -2.046875 7.03125 -2.046875 Z M 7.03125 -2.046875 "/></g></g></g><g fill="#5f0cf7" fill-opacity="1"><g transform="translate(219.090943, 261.751986)"><g><path d="M 12.53125 -11.515625 C 12.757812 -11.515625 12.875 -11.394531 12.875 -11.15625 L 12.875 -0.1875 C 12.875 0.71875 12.691406 1.476562 12.328125 2.09375 C 11.960938 2.71875 11.484375 3.21875 10.890625 3.59375 C 10.304688 3.96875 9.664062 4.238281 8.96875 4.40625 C 8.269531 4.570312 7.59375 4.65625 6.9375 4.65625 C 5.988281 4.65625 5.113281 4.535156 4.3125 4.296875 C 3.507812 4.066406 2.816406 3.765625 2.234375 3.390625 C 2.054688 3.265625 2.023438 3.097656 2.140625 2.890625 L 2.703125 1.875 C 2.804688 1.675781 2.960938 1.628906 3.171875 1.734375 C 3.671875 1.984375 4.203125 2.1875 4.765625 2.34375 C 5.328125 2.5 5.988281 2.578125 6.75 2.578125 C 7.3125 2.578125 7.882812 2.488281 8.46875 2.3125 C 9.0625 2.132812 9.554688 1.835938 9.953125 1.421875 C 10.347656 1.003906 10.546875 0.4375 10.546875 -0.28125 L 10.546875 -1.828125 C 10.109375 -1.265625 9.566406 -0.804688 8.921875 -0.453125 C 8.285156 -0.0976562 7.550781 0.078125 6.71875 0.078125 C 5.632812 0.078125 4.671875 -0.191406 3.828125 -0.734375 C 2.992188 -1.273438 2.332031 -1.992188 1.84375 -2.890625 C 1.363281 -3.785156 1.125 -4.769531 1.125 -5.84375 C 1.125 -6.925781 1.363281 -7.914062 1.84375 -8.8125 C 2.332031 -9.71875 2.992188 -10.4375 3.828125 -10.96875 C 4.671875 -11.507812 5.632812 -11.78125 6.71875 -11.78125 C 7.53125 -11.78125 8.253906 -11.601562 8.890625 -11.25 C 9.523438 -10.90625 10.0625 -10.460938 10.5 -9.921875 L 10.578125 -11.15625 C 10.609375 -11.394531 10.722656 -11.515625 10.921875 -11.515625 Z M 6.984375 -2.1875 C 7.648438 -2.1875 8.242188 -2.359375 8.765625 -2.703125 C 9.296875 -3.046875 9.707031 -3.5 10 -4.0625 C 10.300781 -4.625 10.453125 -5.226562 10.453125 -5.875 C 10.453125 -6.519531 10.300781 -7.117188 10 -7.671875 C 9.707031 -8.222656 9.296875 -8.664062 8.765625 -9 C 8.242188 -9.34375 7.648438 -9.515625 6.984375 -9.515625 C 6.328125 -9.515625 5.734375 -9.351562 5.203125 -9.03125 C 4.679688 -8.707031 4.265625 -8.269531 3.953125 -7.71875 C 3.648438 -7.175781 3.5 -6.5625 3.5 -5.875 C 3.5 -5.195312 3.648438 -4.578125 3.953125 -4.015625 C 4.265625 -3.453125 4.679688 -3.003906 5.203125 -2.671875 C 5.734375 -2.347656 6.328125 -2.1875 6.984375 -2.1875 Z M 6.984375 -2.1875 "/></g></g></g><g fill="#5f0cf7" fill-opacity="1"><g transform="translate(232.52411, 261.751986)"><g><path d="M 11.96875 -11.515625 C 12.25 -11.515625 12.34375 -11.378906 12.25 -11.109375 L 6.1875 4.1875 C 6.125 4.375 5.976562 4.46875 5.75 4.46875 L 4 4.46875 C 3.71875 4.46875 3.625 4.332031 3.71875 4.0625 L 5.359375 0.046875 L 0.9375 -11.109375 C 0.84375 -11.378906 0.9375 -11.515625 1.21875 -11.515625 L 3.015625 -11.515625 C 3.234375 -11.515625 3.375 -11.421875 3.4375 -11.234375 L 6.578125 -2.859375 L 9.734375 -11.234375 C 9.804688 -11.421875 9.945312 -11.515625 10.15625 -11.515625 Z M 11.96875 -11.515625 "/></g></g></g></svg>