<svg xmlns="http://www.w3.org/2000/svg" xmlns:xlink="http://www.w3.org/1999/xlink" width="400" zoomAndPan="magnify" viewBox="0 0 300 149.999998" height="200" preserveAspectRatio="xMidYMid meet" version="1.0"><defs><clipPath id="324dc86123"><path d="M 3 2.601562 L 297 2.601562 L 297 147.351562 L 3 147.351562 Z M 3 2.601562 " clip-rule="nonzero"/></clipPath></defs><g clip-path="url(#324dc86123)"><path fill="#5f0cf7" d="M 51.273438 2.601562 L 118.683594 2.601562 C 123.691406 2.601562 128.316406 5.273438 130.820312 9.609375 L 149.996094 42.820312 L 168.570312 74.996094 L 187.746094 108.207031 C 190.25 112.542969 194.875 115.214844 199.882812 115.214844 L 230.136719 115.214844 C 235.144531 115.214844 239.773438 112.542969 242.277344 108.207031 L 257.40625 82.003906 C 259.910156 77.667969 259.910156 72.324219 257.40625 67.988281 L 242.277344 41.785156 C 239.773438 37.449219 235.144531 34.777344 230.136719 34.777344 L 199.882812 34.777344 C 194.875 34.777344 190.25 37.449219 187.746094 41.785156 L 176.308594 61.589844 L 157.734375 29.414062 L 169.167969 9.609375 C 171.671875 5.273438 176.300781 2.601562 181.308594 2.601562 L 248.714844 2.601562 C 253.722656 2.601562 258.351562 5.273438 260.851562 9.609375 L 294.558594 67.988281 C 297.058594 72.324219 297.058594 77.667969 294.558594 82.003906 L 260.851562 140.378906 C 258.351562 144.714844 253.722656 147.386719 248.714844 147.386719 L 181.308594 147.386719 C 176.300781 147.386719 171.671875 144.714844 169.167969 140.378906 L 149.996094 107.167969 L 131.417969 74.996094 L 112.246094 41.785156 C 109.742188 37.449219 105.113281 34.777344 100.105469 34.777344 L 69.851562 34.777344 C 64.84375 34.777344 60.214844 37.449219 57.714844 41.785156 L 42.585938 67.988281 C 40.082031 72.324219 40.082031 77.667969 42.585938 82.003906 L 57.714844 108.207031 C 60.214844 112.542969 64.84375 115.214844 69.851562 115.214844 L 100.105469 115.214844 C 105.113281 115.214844 109.742188 112.542969 112.246094 108.207031 L 123.679688 88.402344 L 142.253906 120.574219 L 130.820312 140.378906 C 128.316406 144.714844 123.691406 147.386719 118.683594 147.386719 L 51.273438 147.386719 C 46.269531 147.386719 41.640625 144.714844 39.136719 140.378906 L 5.433594 82.003906 C 2.929688 77.667969 2.929688 72.324219 5.433594 67.988281 L 39.136719 9.609375 C 41.640625 5.273438 46.269531 2.601562 51.273438 2.601562 " fill-opacity="1" fill-rule="nonzero"/></g></svg>